REM MD5 cda01ceacfd1478ae68d554d3da60963
FILE "V-Tennis (Japan).bin" BINARY
  TRACK 01 MODE2/2352
    INDEX 01 00:00:00
  TRACK 02 AUDIO
    INDEX 00 16:21:47
    INDEX 01 16:23:47
  TRACK 03 AUDIO
    INDEX 00 19:32:18
    INDEX 01 19:34:18
REM LEADOUT 22:50:05
